<?xml version="1.0" encoding="utf-8"?>
<!-- Generator: Adobe Illustrator 25.3.1, SVG Export Plug-In . SVG Version: 6.00 Build 0)  -->
<svg version="1.1"
	 id="svg8" inkscape:version="1.0.1 (3bc2e813f5, 2020-09-07)" sodipodi:docname="unknown-publisher.svg" xmlns:cc="http://creativecommons.org/ns#" xmlns:dc="http://purl.org/dc/elements/1.1/" xmlns:inkscape="http://www.inkscape.org/namespaces/inkscape" xmlns:rdf="http://www.w3.org/1999/02/22-rdf-syntax-ns#" xmlns:sodipodi="http://sodipodi.sourceforge.net/DTD/sodipodi-0.dtd" xmlns:svg="http://www.w3.org/2000/svg"
	 xmlns="http://www.w3.org/2000/svg" xmlns:xlink="http://www.w3.org/1999/xlink" x="0px" y="0px" width="375px" height="300" viewBox="0 0 375 300"
	 style="enable-background:new 0 0 375 300;" xml:space="preserve">
<style type="text/css">
	.st0{fill-rule:evenodd;clip-rule:evenodd;fill:#E6E6E6;}
	.st1{enable-background:new    ;}
	.st2{font-family:'Ebrima';}
	.st3{font-size:16px;}
	.st4{font-size:13px;}
	.st5{fill:#0078D7;}
	.st6{font-size:14px;}
	.st7{fill-rule:evenodd;clip-rule:evenodd;fill:#B8B8B8;}
	.st8{fill-rule:evenodd;clip-rule:evenodd;fill:#FFD35C;}
	.st9{font-size:11px;}
	.st10{fill:none;stroke:#000000;stroke-miterlimit:15.1181;}
</style>
<sodipodi:namedview  bordercolor="#666666" borderopacity="1.0" fit-margin-bottom="0" fit-margin-left="0" fit-margin-right="0" fit-margin-top="0" id="base" inkscape:current-layer="layer1" inkscape:cx="15.85288" inkscape:cy="157.43935" inkscape:document-rotation="0" inkscape:document-units="mm" inkscape:pageopacity="0.0" inkscape:pageshadow="2" inkscape:window-height="1051" inkscape:window-maximized="1" inkscape:window-width="1920" inkscape:window-x="-9" inkscape:window-y="-9" inkscape:zoom="0.98994949" pagecolor="#ffffff" showgrid="false" units="px">
	</sodipodi:namedview>
<rect id="rect849" y="96.2" class="st0" width="375" height="203.8"/>
<g>
	<text transform="matrix(1 0 0 1 18.6305 128.9201)" class="st1"><tspan x="0" y="0" class="st2 st3">Apache_OpenOffce_4.1.5_Win_x86_install_e</tspan><tspan x="0" y="19.2" class="st2 st3">n-US.exe</tspan></text>
	<text transform="matrix(1 0 0 1 18.6306 180.1775)" class="st2 st4">Publisher: Unknown</text>
	<text transform="matrix(1 0 0 1 18.6306 198.9353)" class="st2 st4">File origin: Hard drive on this computer</text>
	<text transform="matrix(1 0 0 1 18.6306 233.2478)" class="st5 st2 st6">Show more details</text>
</g>
<rect id="rect853" x="22.2" y="263.5" class="st7" width="150.6" height="28.9"/>
<g class="st1">
	<path d="M91.2,281.1v-3.5l-3.2-4.8h1.3l1.6,2.5c0.3,0.5,0.6,0.9,0.8,1.4c0.3-0.4,0.6-0.9,0.9-1.5l1.6-2.5h1.3l-3.3,4.8v3.5H91.2z"
		/>
	<path d="M99.6,279.1l1.1,0.1c-0.2,0.6-0.5,1.1-0.9,1.4c-0.5,0.3-1,0.5-1.7,0.5c-0.9,0-1.6-0.3-2.1-0.8s-0.8-1.3-0.8-2.3
		c0-1,0.3-1.8,0.8-2.4c0.5-0.6,1.2-0.8,2-0.8c0.8,0,1.5,0.3,2,0.8c0.5,0.6,0.8,1.3,0.8,2.3c0,0.1,0,0.2,0,0.3h-4.5
		c0,0.7,0.2,1.2,0.6,1.5c0.3,0.4,0.8,0.5,1.3,0.5c0.4,0,0.7-0.1,1-0.3C99.2,279.9,99.4,279.6,99.6,279.1z M96.2,277.5h3.4
		c0-0.5-0.2-0.9-0.4-1.1c-0.3-0.4-0.8-0.6-1.3-0.6c-0.5,0-0.9,0.2-1.2,0.5S96.2,277,96.2,277.5z"/>
	<path d="M101.5,279.3l1-0.2c0.1,0.4,0.2,0.7,0.5,0.9c0.3,0.2,0.6,0.3,1.1,0.3c0.5,0,0.8-0.1,1-0.3s0.3-0.4,0.3-0.7
		c0-0.2-0.1-0.4-0.3-0.5c-0.1-0.1-0.5-0.2-1-0.3c-0.8-0.2-1.3-0.4-1.6-0.5s-0.5-0.3-0.7-0.6s-0.2-0.5-0.2-0.8c0-0.3,0.1-0.5,0.2-0.7
		c0.1-0.2,0.3-0.4,0.5-0.6c0.2-0.1,0.4-0.2,0.7-0.3c0.3-0.1,0.6-0.1,0.9-0.1c0.5,0,0.9,0.1,1.3,0.2s0.6,0.3,0.8,0.6s0.3,0.5,0.4,0.9
		l-1,0.1c0-0.3-0.2-0.6-0.4-0.7c-0.2-0.2-0.5-0.3-0.9-0.3c-0.5,0-0.8,0.1-1,0.2c-0.2,0.2-0.3,0.3-0.3,0.5c0,0.1,0,0.3,0.1,0.4
		c0.1,0.1,0.2,0.2,0.4,0.3c0.1,0,0.4,0.1,0.9,0.3c0.7,0.2,1.2,0.4,1.5,0.5c0.3,0.1,0.5,0.3,0.7,0.5s0.2,0.5,0.2,0.9
		c0,0.3-0.1,0.7-0.3,1c-0.2,0.3-0.5,0.5-0.9,0.7c-0.4,0.2-0.8,0.2-1.3,0.2c-0.8,0-1.4-0.2-1.8-0.5
		C101.9,280.4,101.6,279.9,101.5,279.3z"/>
</g>
<rect id="rect851" x="180.7" y="264" class="st7" width="161.1" height="28.9"/>
<g class="st1">
	<path d="M254.7,281.6v-8.4h1.1l4.4,6.6v-6.6h1.1v8.4h-1.1l-4.4-6.6v6.6H254.7z"/>
	<path d="M262.6,278.6c0-1.1,0.3-2,0.9-2.5c0.5-0.4,1.2-0.7,1.9-0.7c0.8,0,1.5,0.3,2,0.8c0.5,0.5,0.8,1.3,0.8,2.3
		c0,0.8-0.1,1.4-0.4,1.8s-0.6,0.8-1,1s-0.9,0.4-1.5,0.4c-0.8,0-1.5-0.3-2.1-0.8S262.6,279.6,262.6,278.6z M263.7,278.6
		c0,0.8,0.2,1.4,0.5,1.7c0.3,0.4,0.8,0.6,1.3,0.6c0.5,0,0.9-0.2,1.3-0.6c0.3-0.4,0.5-1,0.5-1.8c0-0.7-0.2-1.3-0.5-1.7
		c-0.3-0.4-0.8-0.6-1.3-0.6c-0.5,0-0.9,0.2-1.3,0.6C263.8,277.2,263.7,277.8,263.7,278.6z"/>
</g>
<rect id="rect847" x="0.4" class="st8" width="375" height="96.2"/>
<text transform="matrix(1 0 0 1 16.8438 41.3923)" class="st1"><tspan x="0" y="0" class="st2 st3">Do you want to allow this app from an</tspan><tspan x="0" y="19.2" class="st2 st3">unknown publisher to make changes to your</tspan><tspan x="0" y="38.4" class="st2 st3">device?</tspan></text>
<text transform="matrix(1 0 0 1 16.8438 17.9192)" class="st2 st9">User Account Control</text>
<g>
	<line class="st10" x1="356.3" y1="17.8" x2="363.8" y2="10.6"/>
	<line class="st10" x1="356.5" y1="10.4" x2="363.7" y2="17.9"/>
</g>
</svg>
