<?xml version="1.0" encoding="UTF-8"?>
<svg id="Layer_2" data-name="Layer 2" xmlns="http://www.w3.org/2000/svg" viewBox="0 0 580.23 122.44">
  <defs>
    <style>
      .cls-1 {
        fill: #fff;
      }

      .cls-2, .cls-3 {
        fill: #03dac6;
      }

      .cls-4 {
        font-family: Verdana-Bold, Verdana;
        font-size: 104.94px;
        font-weight: 700;
      }

      .cls-3 {
        letter-spacing: 0em;
      }
    </style>
  </defs>
  <g id="Layer_1-2" data-name="Layer 1">
    <text class="cls-4" transform="translate(0 90.62)"><tspan class="cls-1" x="0" y="0">Phish</tspan><tspan class="cls-3" x="324.56" y="0">ED</tspan></text>
    <path class="cls-2" d="m548.87,15.99c-4.99-4.99-13.08-4.99-18.07,0l-30.12,30.12c-4.99,4.99-4.99,13.08,0,18.07l27.1,27.1,3.01,3.01c1.67,1.67,4.36,1.67,6.02,0s1.67-4.36,0-6.02l6.02-6.02c1.67,1.67,4.36,1.67,6.02,0l30.12-30.12c1.67-1.67,1.67-4.36,0-6.02l-3.01-3.01-27.1-27.1Zm-36.14,36.14l24.09,24.09-6.02,6.02-24.09-24.09c-1.67-1.67-1.67-4.36,0-6.02s4.36-1.67,6.02,0Zm25.6-19.58c.83-.83,2.18-.83,3.01,0l18.07,18.07c.83.83.83,2.18,0,3.01s-2.18.83-3.01,0l-18.07-18.07c-.83-.83-.83-2.18,0-3.01Zm-3.01,6.02l18.07,18.07c.83.83.83,2.18,0,3.01s-2.18.83-3.01,0l-18.07-18.07c-.83-.83-.83-2.18,0-3.01s2.18-.83,3.01,0Z"/>
  </g>
</svg>